# xmcd CD database file
#
# Track frame offsets:
#	150
#	17693
#	30792
#	43704
#	56578
#	69590
#	83156
#	99962
#	111859
#	122109
#	136541
#	153741
#	164494
#	184430
#	200247
#	212337
#	224817
#	239340
#	254365
#	269936
#	290877
#
# Disc length: 4440 seconds
#
# Revision: 2
# Processed by: cddbd v1.5.2PL0 Copyright (c) Steve Scherf et al.
# Submitted via: CDex 1.51
#
DISCID=45115615
DTITLE=Various Artist - Country Love Songs CD1
DYEAR=1900
DGENRE=Country
TTITLE0=Kenny Rogers - Lady
TTITLE1=Crystal Gayle - Talking in your sleep
TTITLE2=Billy Jo Spears - What the world needs now is love
TTITLE3=Don Williams - You love me through it all
TTITLE4=Dr Hook - Sharing the night together
TTITLE5=Glen Campbell - Honey come back
TTITLE6=Suzy Bogguss - Train of thought
TTITLE7=Wanda Jackson - Crazy
TTITLE8=Willie Nelson - There'll be no teardrops tonight
TTITLE9=Tanya Tucker - Just another love
TTITLE10=Nitty Gritty Dirt Band - All I have to do is dream
TTITLE11=Slim Whitman - The most beautiful girl in the world
TTITLE12=Lacy J. Dalton - Stay with me
TTITLE13=Juice Newton - Come to me
TTITLE14=George Jones and Melba Montgomery - We must have been out of our minds
TTITLE15=Faron Young - Sweet dreams
TTITLE16=Eddie Rabbitt - The best years of my life
TTITLE17=Bobbie Gentry - You've made me so very happy
TTITLE18=Asleep at the wheel ft Suzy Bogguss and Ray Benson - Old fashioned love
TTITLE19=Jean Sheppard - Another lonely night
TTITLE20=Daten - Daten-CD
EXTD=
EXTT0=
EXTT1=
EXTT2=
EXTT3=
EXTT4=
EXTT5=
EXTT6=
EXTT7=
EXTT8=
EXTT9=
EXTT10=
EXTT11=
EXTT12=
EXTT13=
EXTT14=
EXTT15=
EXTT16=
EXTT17=
EXTT18=
EXTT19=
EXTT20=
PLAYORDER=
